<svg xmlns="http://www.w3.org/2000/svg" viewBox="0 0 56.37 54.01"><defs><style>.cls-1{fill:none;stroke:#352166;stroke-miterlimit:10;stroke-width:4px;}</style></defs><title>favoritos</title><g id="Camada_2" data-name="Camada 2"><g id="Camada_1-2" data-name="Camada 1"><path class="cls-1" d="M53.5,23.3,39.86,33.22l5.21,16a2.13,2.13,0,0,1-.76,2.36,2.11,2.11,0,0,1-1.24.4,2.08,2.08,0,0,1-1.24-.4L28.19,41.7,14.54,51.61a2.09,2.09,0,0,1-2.47,0,2.12,2.12,0,0,1-.77-2.36l5.21-16L2.87,23.3A2.1,2.1,0,0,1,2.1,21a2.13,2.13,0,0,1,2-1.46H21l5.21-16a2.11,2.11,0,0,1,4,0l5.21,16H52.26A2.1,2.1,0,0,1,53.5,23.3Z"/></g></g></svg>