<svg width="35" height="35" viewBox="0 0 35 35" fill="none" xmlns="http://www.w3.org/2000/svg">
<g clip-path="url(#clip0)">
<path d="M1.37603 26.343C4.52124 23.6076 7.43361 19.7578 7.43361 10.1167C7.52166 7.49368 8.62029 5.00762 10.4976 3.18334C12.3749 1.35906 14.884 0.339294 17.4952 0.339294C20.1065 0.339294 22.6156 1.35906 24.4929 3.18334C26.3702 5.00762 27.4688 7.49368 27.5568 10.1167C27.5568 19.7578 30.4769 23.6134 33.6259 26.345C34.0562 26.7208 34.4014 27.1849 34.6384 27.706C34.8754 28.2271 34.9987 28.7932 35 29.3662C35 29.6714 34.8794 29.9642 34.6646 30.18C34.4499 30.3958 34.1586 30.5171 33.8549 30.5171H22.9879C22.7238 31.7835 22.0341 32.92 21.0348 33.7357C20.0355 34.5513 18.7874 34.9966 17.5 34.9966C16.2126 34.9966 14.9645 34.5513 13.9652 33.7357C12.9659 32.92 12.2762 31.7835 12.0121 30.5171H1.1451C0.8414 30.5171 0.550137 30.3958 0.335388 30.18C0.120644 29.9642 0 29.6714 0 29.3662C-0.000751495 28.7924 0.121815 28.2252 0.359306 27.7034C0.596794 27.1817 0.943611 26.7176 1.37603 26.343ZM17.501 32.6981C18.179 32.6973 18.8405 32.4878 19.3967 32.0979C19.9528 31.708 20.3768 31.1564 20.6118 30.5171H14.3882C14.6233 31.1567 15.0476 31.7086 15.6041 32.0985C16.1606 32.4884 16.8226 32.6977 17.501 32.6981ZM32.2594 28.2152C32.2172 28.1693 32.1726 28.1258 32.1258 28.0848C27.3259 23.9184 25.2781 18.5454 25.2781 10.1167C25.2781 8.0436 24.4587 6.05537 23.0002 4.58944C21.5417 3.12351 19.5636 2.29996 17.501 2.29996C15.4383 2.29996 13.4602 3.12351 12.0017 4.58944C10.5432 6.05537 9.72381 8.0436 9.72381 10.1167C9.72381 18.5378 7.67408 23.9107 2.87229 28.0848C2.82545 28.1258 2.78085 28.1693 2.7387 28.2152H32.2594Z" fill="#382B51"/>
</g>
<defs>
<clipPath id="clip0">
<rect width="35" height="35" fill="white" transform="matrix(-1 0 0 1 35 0)"/>
</clipPath>
</defs>
</svg>
