<svg xmlns="http://www.w3.org/2000/svg" viewBox="0 0 40.52 45.59"><defs><style>.cls-1{fill:#352166;}</style></defs><title>redes-sociais</title><g id="Camada_2" data-name="Camada 2"><g id="Camada_1-2" data-name="Camada 1"><path class="cls-1" d="M32.92,30.39A7.52,7.52,0,0,0,28.3,32L15.09,24a8.54,8.54,0,0,0,.11-1.25,8.53,8.53,0,0,0-.11-1.24L28.3,13.62a7.52,7.52,0,0,0,4.62,1.58,7.6,7.6,0,1,0-7.59-7.6,7.24,7.24,0,0,0,.11,1.24L12.22,16.77a7.6,7.6,0,1,0,0,12l13.22,7.93A7.36,7.36,0,0,0,25.33,38a7.6,7.6,0,1,0,7.59-7.6Z"/></g></g></svg>