<svg xmlns="http://www.w3.org/2000/svg" viewBox="0 0 50.32 49.93"><defs><style>.cls-1{fill:#352166;}</style></defs><title>sacola</title><g id="Camada_2" data-name="Camada 2"><g id="Camada_1-2" data-name="Camada 1"><path class="cls-1" d="M4.66,12.89.51,47.77a1.44,1.44,0,0,0,.37,1.16,1.43,1.43,0,0,0,1.1.5H48.34a1.46,1.46,0,0,0,1.11-.5,1.48,1.48,0,0,0,.36-1.16L45.66,12.89a1.48,1.48,0,0,0-1.47-1.3H37.55a12.56,12.56,0,0,0-24.95,0H6.13a1.48,1.48,0,0,0-1.47,1.3ZM25.08,3.46a9.62,9.62,0,0,1,9.48,8.13h-19a9.6,9.6,0,0,1,9.48-8.13ZM14,14.55H42.87l3.8,31.92h-43l3.8-31.92Z"/><path class="cls-1" d="M48.34,49.93H2A2,2,0,0,1,.5,49.27,2,2,0,0,1,0,47.72L4.17,12.83a2,2,0,0,1,2-1.74h6a13.06,13.06,0,0,1,25.82,0h6.2a2,2,0,0,1,2,1.74l4.16,34.88a2,2,0,0,1-2,2.22ZM6.13,12.09a1,1,0,0,0-1,.86h0L1,47.83a.94.94,0,0,0,.24.77,1,1,0,0,0,.73.33H48.34a1,1,0,0,0,.74-.33,1,1,0,0,0,.23-.77L45.16,13a1,1,0,0,0-1-.86H37.1l-.05-.44a12.06,12.06,0,0,0-23.95,0l0,.44ZM47.24,47H3.08L7,14.05H43.32l0,.44Zm-43-1h41.9L42.43,15.05H7.89ZM35.14,12.09H15l.09-.58a10.09,10.09,0,0,1,19.95,0Zm-18.94-1H34a9.09,9.09,0,0,0-17.75,0Z"/></g></g></svg>